<svg width="16" height="16" viewBox="0 0 16 16" fill="none" xmlns="http://www.w3.org/2000/svg">
<path fill-rule="evenodd" clip-rule="evenodd" d="M2.33334 0.333374H11.6667C12.8 0.333374 13.6667 1.20004 13.6667 2.33337V11.6667C13.6667 12.8 12.8 13.6667 11.6667 13.6667H2.33334C1.20001 13.6667 0.333344 12.8 0.333344 11.6667V2.33337C0.333344 1.20004 1.20001 0.333374 2.33334 0.333374ZM6.80001 9.46671L10.1333 6.13337C10.4 5.86671 10.4 5.46671 10.1333 5.20004C9.86668 4.93337 9.46668 4.93337 9.20001 5.20004L6.33334 8.06671L4.80001 6.53337C4.53334 6.26671 4.13334 6.26671 3.86668 6.53337C3.60001 6.80004 3.60001 7.20004 3.86668 7.46671L5.86668 9.46671C6.00001 9.60004 6.13334 9.66671 6.33334 9.66671C6.53334 9.66671 6.66668 9.60004 6.80001 9.46671Z" fill="#0060DF"/>
</svg>
