<svg width="104" height="104" viewBox="0 0 104 104" fill="none" xmlns="http://www.w3.org/2000/svg">
<path d="M91 1H12.25C6.0368 1 1 6.0368 1 12.25V91C1 97.2132 6.0368 102.25 12.25 102.25H91C97.2132 102.25 102.25 97.2132 102.25 91V12.25C102.25 6.0368 97.2132 1 91 1Z" stroke="#CDCDD4" stroke-width="2" stroke-linecap="round" stroke-linejoin="round"/>
<path d="M32.4375 39.875C37.0974 39.875 40.875 36.0974 40.875 31.4375C40.875 26.7776 37.0974 23 32.4375 23C27.7776 23 24 26.7776 24 31.4375C24 36.0974 27.7776 39.875 32.4375 39.875Z" stroke="#CDCDD4" stroke-width="2" stroke-linecap="round" stroke-linejoin="round"/>
<path d="M102 68.125L73.875 40L12 101.875" stroke="#CDCDD4" stroke-width="2" stroke-linecap="round" stroke-linejoin="round"/>
</svg>
