  <svg width="24" height="24" viewBox="0 0 24 24" fill="none" xmlns="http://www.w3.org/2000/svg">
                <path d="M7.65187 21.5238C16.4963 21.5238 21.3337 14.1963 21.3337 7.84193C21.3337 7.6338 21.3337 7.42662 21.3197 7.22037C22.2608 6.53966 23.0731 5.69681 23.7188 4.7313C22.8411 5.12018 21.9102 5.3752 20.9569 5.48786C21.9607 4.88691 22.712 3.94171 23.0709 2.82818C22.127 3.38829 21.0944 3.78303 20.0175 3.99537C19.2925 3.22444 18.3336 2.71396 17.2893 2.54291C16.2449 2.37186 15.1733 2.54977 14.2402 3.04913C13.3071 3.54848 12.5647 4.34143 12.1277 5.30528C11.6907 6.26912 11.5835 7.35012 11.8228 8.38099C9.91102 8.28515 8.04075 7.78833 6.33341 6.92279C4.62608 6.05726 3.11985 4.84234 1.9125 3.35693C1.29759 4.41552 1.10925 5.66867 1.38584 6.86125C1.66243 8.05382 2.38315 9.09614 3.40125 9.77599C2.63601 9.75331 1.88745 9.54688 1.21875 9.17412C1.21875 9.1938 1.21875 9.21443 1.21875 9.23505C1.21905 10.3453 1.60337 11.4212 2.30651 12.2803C3.00966 13.1395 3.98834 13.729 5.07656 13.9488C4.36863 14.1419 3.62586 14.1701 2.90531 14.0313C3.21259 14.9868 3.81081 15.8223 4.61632 16.4211C5.42182 17.0198 6.39433 17.3518 7.39781 17.3707C5.69506 18.7089 3.59162 19.4354 1.42594 19.4332C1.04335 19.4324 0.661129 19.4093 0.28125 19.3638C2.48028 20.775 5.03898 21.5235 7.65187 21.5201" fill="black"/>
              </svg>