<svg width="325" height="343" viewBox="0 0 325 343" fill="none" xmlns="http://www.w3.org/2000/svg">
<path fill-rule="evenodd" clip-rule="evenodd" d="M178.394 172.19L251.656 101.623L322.477 206.712L198.521 215.798L178.394 172.19ZM196.923 215.915L177.25 173.291L127.734 220.986L196.923 215.915ZM126.044 222.614L197.594 217.37L248.469 327.599L2.74408 341.378L126.044 222.614ZM125.393 221.158L176.585 171.85L98.4704 2.60151L4.2807 230.035L125.393 221.158ZM3.80023 231.574L123.703 222.786L1.53171 340.463L3.80023 231.574ZM199.192 217.253L322.612 208.206L249.701 326.687L199.192 217.253ZM177.729 170.748L100.118 2.59076L250.554 100.602L177.729 170.748ZM250.304 328.568C250.133 328.847 249.835 329.024 249.509 329.043L1.05603 342.975C0.47443 343.007 -0.0118673 342.538 0.000278736 341.955L2.31079 231.05C2.31339 230.926 2.33911 230.803 2.38669 230.688L97.6685 0.61774C97.908 0.0394314 98.6138 -0.179197 99.1382 0.162478L252.197 99.8827C252.309 99.9558 252.406 100.051 252.481 100.162L324.452 206.958C324.672 207.284 324.68 207.707 324.475 208.041L250.304 328.568Z" fill="#EDEDF0"/>
</svg>
